<?xml version="1.0" standalone="no"?>
<!DOCTYPE svg PUBLIC "-//W3C//DTD SVG 20010904//EN"
 "http://www.w3.org/TR/2001/REC-SVG-20010904/DTD/svg10.dtd">
<svg version="1.0" xmlns="http://www.w3.org/2000/svg"
 width="1060.000000pt" height="1060.000000pt" viewBox="0 0 1060.000000 1060.000000"
 preserveAspectRatio="xMidYMid meet">

<g transform="translate(0.000000,1060.000000) scale(0.100000,-0.100000)"
fill="#000000" stroke="none">
<path d="M8155 9156 c-16 -8 -42 -26 -56 -42 -32 -36 -442 -706 -475 -777 -30
-65 -30 -102 0 -205 27 -93 63 -148 112 -168 58 -24 90 -18 138 26 24 22 48
40 53 40 6 0 18 -11 27 -25 14 -21 16 -67 16 -345 l0 -320 -142 0 c-129 0
-148 -2 -193 -24 -71 -33 -157 -128 -203 -223 -35 -74 -37 -83 -37 -178 0 -83
4 -107 22 -141 42 -79 122 -126 186 -110 64 16 129 93 140 166 4 25 5 25 115
28 l112 3 0 -1179 0 -1179 -26 -24 c-33 -31 -116 -169 -143 -237 -15 -37 -21
-75 -21 -127 0 -64 3 -77 26 -104 16 -19 42 -35 67 -41 87 -22 129 -43 182
-92 67 -61 129 -162 233 -379 91 -190 108 -209 186 -209 61 0 92 18 138 80 77
102 399 571 407 592 16 42 23 127 16 187 -13 110 -100 207 -180 198 -22 -2
-48 -7 -57 -11 -13 -6 -23 3 -45 36 -15 24 -45 66 -65 94 l-38 51 2 1174 3
1174 145 5 c124 4 151 8 186 27 59 31 148 132 186 211 29 60 33 78 36 169 4
120 -12 167 -79 227 -34 31 -46 36 -90 36 -87 0 -145 -49 -170 -143 l-13 -47
-103 0 -103 0 0 256 0 256 58 66 c66 75 144 200 203 326 30 66 39 96 39 139 0
74 -19 96 -90 106 -73 11 -95 21 -158 70 -101 80 -253 295 -334 472 -54 118
-123 155 -213 115z"/>
<path d="M2331 7773 c-40 -39 -881 -1306 -900 -1356 -8 -19 -11 -288 -11 -833
l0 -805 -49 -83 c-110 -187 -141 -298 -105 -378 16 -35 28 -45 94 -75 118 -53
143 -76 243 -217 116 -162 149 -214 217 -341 109 -204 201 -319 288 -364 79
-40 122 -25 176 62 21 34 91 144 155 244 l116 181 3 -363 2 -363 -135 -223
c-75 -123 -140 -228 -145 -233 -14 -14 -53 7 -106 56 -55 50 -83 97 -133 220
-85 206 -104 228 -200 228 -49 0 -56 -3 -100 -47 -53 -52 -460 -710 -493 -796
-23 -59 -22 -84 1 -174 33 -128 75 -180 159 -198 27 -5 41 -2 72 19 22 14 47
37 56 51 9 14 19 25 23 25 4 0 18 -19 31 -42 13 -24 56 -74 94 -112 117 -116
241 -158 384 -131 141 27 199 67 288 200 23 33 225 352 449 710 l408 650 -6
1485 -6 1485 44 70 c122 198 176 347 145 404 -13 26 -66 51 -107 51 -88 0
-257 155 -372 341 -175 283 -411 646 -434 665 -45 38 -98 33 -146 -13z m-93
-1165 c61 -112 129 -209 211 -302 l61 -69 0 -849 0 -849 -49 -59 c-27 -32 -51
-64 -54 -72 -5 -10 -8 -10 -16 2 -47 74 -143 199 -202 264 l-72 78 -5 918 -5
918 39 56 c22 31 40 56 41 56 1 0 24 -42 51 -92z"/>
<path d="M4375 7778 c-41 -40 -894 -1331 -906 -1373 -5 -16 -9 -396 -9 -843
l0 -814 -56 -85 c-84 -127 -107 -185 -108 -265 -1 -89 16 -111 131 -168 50
-25 101 -54 113 -65 19 -17 127 -165 211 -290 16 -23 68 -112 115 -196 113
-202 176 -285 254 -338 98 -65 149 -54 207 43 129 213 330 507 606 884 l317
433 0 781 0 781 55 92 c129 217 163 332 114 388 -19 20 -39 29 -88 36 -67 11
-105 32 -186 103 -76 67 -139 156 -375 530 -143 226 -240 370 -257 380 -46 29
-98 23 -138 -14z m-101 -1156 c48 -94 143 -234 215 -315 l61 -68 0 -854 c0
-512 -4 -856 -9 -860 -5 -3 -30 -32 -54 -65 l-45 -60 -66 93 c-36 50 -99 130
-141 177 l-75 85 0 923 0 923 30 45 c17 24 35 44 40 44 6 0 25 -31 44 -68z"/>
<path d="M6394 7776 c-17 -7 -41 -26 -53 -42 -42 -52 -811 -1225 -836 -1275
l-25 -48 0 -389 0 -388 -40 -78 c-39 -76 -40 -79 -40 -182 0 -83 4 -112 19
-142 23 -45 66 -87 104 -101 43 -16 109 -13 134 7 12 9 126 179 252 377 l231
360 0 315 0 314 47 77 47 78 48 -91 c50 -95 121 -200 157 -232 11 -11 21 -23
21 -28 0 -5 -208 -329 -462 -721 l-463 -712 -2 -182 -3 -183 -48 -59 c-26 -33
-70 -103 -97 -156 -42 -82 -50 -106 -53 -165 -2 -38 -2 -80 2 -93 10 -42 52
-73 121 -90 148 -37 239 -146 381 -456 33 -74 75 -152 93 -173 31 -37 34 -38
95 -38 95 0 70 -28 390 433 l137 197 41 -32 c59 -48 137 -172 232 -371 47 -97
96 -188 110 -202 21 -21 35 -25 83 -25 39 0 68 6 88 19 18 11 113 137 244 326
238 342 249 365 237 485 -8 79 -33 133 -85 184 -46 45 -105 58 -144 33 -24
-15 -25 -15 -76 60 l-51 75 0 879 0 878 57 93 c31 51 76 134 100 184 36 77 43
101 43 152 0 54 -3 63 -26 81 -16 13 -41 21 -63 21 -78 0 -199 86 -300 214
-28 35 -150 221 -272 412 -121 192 -232 361 -247 376 -33 33 -86 43 -128 24z
m51 -3170 c-47 -69 -97 -150 -112 -182 -25 -54 -27 -57 -40 -38 -8 10 -32 43
-54 73 l-39 55 0 298 0 299 137 217 c75 119 148 235 162 257 l26 40 3 -448 2
-447 -85 -124z"/>
</g>
</svg>
